<svg xmlns="http://www.w3.org/2000/svg" viewBox="0 0 100 100"><title>Element 1</title><circle cx="50" cy="50" r="50" fill="#ef2b60"/><path d="M80.433,56.977,77.872,74.4l-5.181-5.028a34.927,34.927,0,0,1-22.781,8.19A36.189,36.189,0,0,1,27,69.656l-4.728,4.589-2.7-17.268L37.36,59.6l-4.9,4.758c3.441,2.554,8.837,5.636,14.212,5.636l-.015-28.43A9.865,9.865,0,0,1,39.9,32.307a10.172,10.172,0,0,1,20.335,0,9.868,9.868,0,0,1-6.93,9.309c.023,5.546.114,28.479-.008,28.479,5.14,0,10.446-3.346,13.9-6.051L62.62,59.6ZM55.312,32.152a5.245,5.245,0,1,0-5.243,5.088A5.167,5.167,0,0,0,55.312,32.152Z" fill="#fff" fill-rule="evenodd"/></svg>